<svg xmlns="http://www.w3.org/2000/svg" width="40" height="24" viewBox="0 0 40 24">
  <rect width="40" height="24" rx="4" fill="#F9F9F9"/>
  <path d="M16.4 15.6H14L15.6 8.4H18L16.4 15.6Z" fill="#00579F"/>
  <path d="M24.4 8.6C23.8 8.4 22.8 8.2 21.6 8.2C19.2 8.2 17.4 9.4 17.4 11.2C17.4 12.6 18.8 13.2 19.8 13.6C20.8 14 21.2 14.2 21.2 14.6C21.2 15.2 20.4 15.4 19.6 15.4C18.4 15.4 17.8 15.2 16.8 14.8L16.4 14.6L16 16.6C16.8 16.8 18 17.2 19.4 17.2C22 17.2 23.8 16 23.8 14C23.8 13 23.2 12.2 21.6 11.6C20.6 11.2 20 11 20 10.6C20 10.2 20.4 9.8 21.6 9.8C22.6 9.8 23.4 10 24 10.2L24.4 10.4L24.8 8.6H24.4Z" fill="#00579F"/>
  <path d="M28.8 8.4C28.2 8.4 27.8 8.6 27.6 9.2L23.6 15.6H26.2L26.8 14.2H30L30.4 15.6H32.6L30.4 8.4H28.8ZM27.6 12.4C27.8 12 28.6 10 28.6 10C28.6 10 28.8 9.6 29 9.2L29.2 10C29.2 10 29.6 12 29.8 12.4H27.6Z" fill="#00579F"/>
  <path d="M13.6 8.4L11.2 13.4L11 12.6C10.4 11 9 9.4 7.4 8.6L9.6 15.6H12.2L16.2 8.4H13.6Z" fill="#00579F"/>
  <path d="M9.2 9.2H5.4L5.2 9.4C7.6 10 9.2 11.6 10 13.6L9.2 9.6V9.2Z" fill="#FAA61A"/>
</svg>