<svg xmlns="http://www.w3.org/2000/svg" width="40" height="24" viewBox="0 0 40 24">
  <rect width="40" height="24" rx="4" fill="#F9F9F9"/>
  <path d="M24 7H16V17H24V7Z" fill="#FF5F00"/>
  <path d="M16.8 12C16.8 10 17.8 8.2 19.2 7C18 6 16.4 5.4 14.8 5.4C11 5.4 8 8.4 8 12C8 15.6 11 18.6 14.8 18.6C16.4 18.6 18 18 19.2 17C17.8 15.8 16.8 14 16.8 12Z" fill="#EB001B"/>
  <path d="M32 12C32 15.6 29 18.6 25.2 18.6C23.6 18.6 22 18 20.8 17C22.2 15.8 23.2 14 23.2 12C23.2 10 22.2 8.2 20.8 7C22 6 23.6 5.4 25.2 5.4C29 5.4 32 8.4 32 12Z" fill="#F79E1B"/>
</svg>