<svg xmlns="http://www.w3.org/2000/svg" width="40" height="24" viewBox="0 0 40 24">
  <rect width="40" height="24" rx="4" fill="#F9F9F9"/>
  <path d="M29.6 9.2C29.6 11.4 28 13 25.6 13H24C23.8 13 23.6 13.2 23.6 13.4L23 16.6C23 16.8 22.8 17 22.6 17H20.4C20.2 17 20 16.8 20.2 16.6L22.2 7.4C22.2 7.2 22.4 7 22.6 7H28C29 7 29.6 7.8 29.6 9.2Z" fill="#253B80"/>
  <path d="M14.6 9.2C14.6 11.4 13 13 10.6 13H9C8.8 13 8.6 13.2 8.6 13.4L8 16.6C8 16.8 7.8 17 7.6 17H5.4C5.2 17 5 16.8 5.2 16.6L7.2 7.4C7.2 7.2 7.4 7 7.6 7H13C14 7 14.6 7.8 14.6 9.2Z" fill="#179BD7"/>
  <path d="M14.6 9.2C14.6 9.4 14.6 9.6 14.6 9.8C13.4 12.8 10.8 13 8.6 13H7.6C7.4 13 7.2 13.2 7.2 13.4L6.4 17.6C6.4 17.8 6.2 18 6 18H4C3.8 18 3.6 17.8 3.8 17.6L5.8 8.4C5.8 8.2 6 8 6.2 8H12.8C13.8 8 14.6 8.4 14.6 9.2Z" fill="#253B80"/>
  <path d="M29.6 9.2C29.6 9.4 29.6 9.6 29.6 9.8C28.4 12.8 25.8 13 23.6 13H22.6C22.4 13 22.2 13.2 22.2 13.4L21.4 17.6C21.4 17.8 21.2 18 21 18H19C18.8 18 18.6 17.8 18.8 17.6L20.8 8.4C20.8 8.2 21 8 21.2 8H27.8C28.8 8 29.6 8.4 29.6 9.2Z" fill="#179BD7"/>
</svg>